<svg xmlns="http://www.w3.org/2000/svg" version="1.0" width="150.000000" height="150.000000" preserveAspectRatio="xMidYMid meet" style=""><rect id="backgroundrect" width="100%" height="100%" x="0" y="0" fill="none" stroke="none"/>


<g class="currentLayer" style=""><title>Layer 1</title><g transform="translate(0,150) scale(0.10000000149011612,-0.10000000149011612) " fill="#ffffff" stroke="none" id="svg_1" class="" fill-opacity="1">
<path d="M693.4054050445557,1354 c-3,-5 -3,-27 -1,-50 l5,-40 l68,-1 c136,-2 263,-58 358,-157 c271,-282 145,-742 -231,-851 c-32,-9 -89,-17 -127,-18 l-68,-1 l-5,-40 c-2,-23 -2,-45 1,-50 c8,-14 172,1 242,23 c188,59 342,214 403,406 c17,54 22,95 22,175 c0,80 -5,121 -22,175 c-61,192 -215,347 -403,406 c-70,22 -234,37 -242,23 z" id="svg_2" fill="#ffffff" fill-opacity="1"/>
<path d="M483.40540504455566,1294 c-27,-13 -48,-26 -48,-29 c0,-7 42,-75 46,-75 c3,0 27,11 54,25 l49,25 l-13,37 c-7,21 -19,39 -27,40 c-8,1 -35,-9 -61,-23 z" id="svg_3" fill="#ffffff" fill-opacity="1"/>
<path d="M281.40540504455566,1130 c-21,-27 -35,-54 -31,-60 c3,-5 20,-17 36,-26 c30,-15 31,-15 64,23 c19,21 34,40 35,44 c0,3 -15,19 -33,37 l-33,32 l-38,-50 z" id="svg_4" fill="#ffffff" fill-opacity="1"/>
<path d="M865.4054050445557,814 c-69,-80 -134,-154 -146,-165 l-21,-19 l-94,75 c-52,41 -98,74 -103,72 c-5,-2 -20,-17 -33,-33 l-23,-31 l136,-107 c74,-60 136,-107 138,-105 c1,2 80,93 174,201 c95,109 172,201 172,206 c0,10 -55,52 -67,51 c-4,0 -64,-65 -133,-145 z" id="svg_5" fill="#ffffff" fill-opacity="1"/>
<path d="M166.40540504455566,906 c-20,-82 -13,-96 49,-96 c22,0 29,5 33,29 c3,16 9,40 13,55 c5,21 2,27 -17,35 c-67,24 -66,25 -78,-23 z" id="svg_6" fill="#ffffff" fill-opacity="1"/>
<path d="M165.40540504455566,680 c-12,-7 -13,-18 -2,-66 c6,-31 13,-59 15,-60 c5,-5 69,16 80,26 c4,3 2,30 -4,58 c-12,49 -14,52 -43,52 c-17,0 -38,-4 -46,-10 z" id="svg_7" fill="#ffffff" fill-opacity="1"/>
<path d="M278.40540504455566,449 c-18,-12 -33,-23 -33,-26 c0,-8 73,-103 79,-103 c9,0 61,54 61,63 c0,9 -62,87 -70,87 c-3,0 -20,-10 -37,-21 z" id="svg_8" fill="#ffffff" fill-opacity="1"/>
<path d="M456.40540504455566,274 c-12,-19 -21,-37 -21,-39 c0,-10 103,-56 114,-52 c7,3 17,21 23,41 l11,37 l-49,24 c-26,14 -50,25 -53,25 c-2,0 -13,-16 -25,-36 z" id="svg_9" fill="#ffffff" fill-opacity="1"/>
</g></g></svg>