<?xml version="1.0" standalone="no"?>
<!DOCTYPE svg PUBLIC "-//W3C//DTD SVG 20010904//EN"
 "http://www.w3.org/TR/2001/REC-SVG-20010904/DTD/svg10.dtd">
<svg version="1.0" xmlns="http://www.w3.org/2000/svg"
 width="150.000000pt" height="150.000000pt" viewBox="0 0 150.000000 150.000000"
 preserveAspectRatio="xMidYMid meet">

<g transform="translate(0.000000,150.000000) scale(0.100000,-0.100000)"
fill="#000000" stroke="none">
<path d="M688 1354 c-3 -5 -3 -27 -1 -50 l5 -40 68 -1 c136 -2 263 -58 358
-157 271 -282 145 -742 -231 -851 -32 -9 -89 -17 -127 -18 l-68 -1 -5 -40 c-2
-23 -2 -45 1 -50 8 -14 172 1 242 23 188 59 342 214 403 406 17 54 22 95 22
175 0 80 -5 121 -22 175 -61 192 -215 347 -403 406 -70 22 -234 37 -242 23z"/>
<path d="M478 1294 c-27 -13 -48 -26 -48 -29 0 -7 42 -75 46 -75 3 0 27 11 54
25 l49 25 -13 37 c-7 21 -19 39 -27 40 -8 1 -35 -9 -61 -23z"/>
<path d="M276 1130 c-21 -27 -35 -54 -31 -60 3 -5 20 -17 36 -26 30 -15 31
-15 64 23 19 21 34 40 35 44 0 3 -15 19 -33 37 l-33 32 -38 -50z"/>
<path d="M860 814 c-69 -80 -134 -154 -146 -165 l-21 -19 -94 75 c-52 41 -98
74 -103 72 -5 -2 -20 -17 -33 -33 l-23 -31 136 -107 c74 -60 136 -107 138
-105 1 2 80 93 174 201 95 109 172 201 172 206 0 10 -55 52 -67 51 -4 0 -64
-65 -133 -145z"/>
<path d="M161 906 c-20 -82 -13 -96 49 -96 22 0 29 5 33 29 3 16 9 40 13 55 5
21 2 27 -17 35 -67 24 -66 25 -78 -23z"/>
<path d="M160 680 c-12 -7 -13 -18 -2 -66 6 -31 13 -59 15 -60 5 -5 69 16 80
26 4 3 2 30 -4 58 -12 49 -14 52 -43 52 -17 0 -38 -4 -46 -10z"/>
<path d="M273 449 c-18 -12 -33 -23 -33 -26 0 -8 73 -103 79 -103 9 0 61 54
61 63 0 9 -62 87 -70 87 -3 0 -20 -10 -37 -21z"/>
<path d="M451 274 c-12 -19 -21 -37 -21 -39 0 -10 103 -56 114 -52 7 3 17 21
23 41 l11 37 -49 24 c-26 14 -50 25 -53 25 -2 0 -13 -16 -25 -36z"/>
</g>
</svg>
